<?xml version="1.0" encoding="UTF-8"?>
<svg id="Layer_1" data-name="Layer 1" xmlns="http://www.w3.org/2000/svg" viewBox="0 0 490 490">
  <defs>
    <style>
      .cls-1 {
        fill: #084045;
        stroke-width: 0px;
      }
    </style>
  </defs>
  <path class="cls-1" d="M326.83,183.18s-.08,0-.12,0c-.12-.19-.22-.39-.34-.59-1.97-3.25-1.43-7.44,1.26-10.12l17.47-17.47c3.24-3.24,3.24-8.5,0-11.75l-22.67-22.67c-3.24-3.24-8.5-3.24-11.74,0l-17.88,17.88c-2.65,2.65-6.76,3.22-10,1.33-9.76-5.69-20.37-10.08-31.6-12.93-3.65-.93-6.19-4.26-6.19-8.03v-25.44c0-4.59-3.72-8.31-8.31-8.31h-32.06c-4.59,0-8.3,3.72-8.3,8.31v25.44c0,3.77-2.53,7.1-6.19,8.03-11.23,2.85-21.84,7.24-31.6,12.93-3.24,1.89-7.35,1.32-10-1.33l-17.88-17.88c-3.24-3.24-8.5-3.24-11.74,0l-22.67,22.67c-3.24,3.24-3.24,8.5,0,11.75l17.47,17.47c2.69,2.69,3.23,6.87,1.26,10.12-5.98,9.85-10.61,20.6-13.66,31.99-.96,3.6-4.27,6.07-8,6.07h-24.26c-4.59,0-8.31,3.72-8.31,8.3v32.06c0,4.59,3.72,8.31,8.31,8.31h23.45c3.83,0,7.16,2.61,8.06,6.34,2.84,11.77,7.36,22.88,13.3,33.07,1.89,3.23,1.31,7.34-1.34,9.98l-16.27,16.27c-3.24,3.24-3.24,8.5,0,11.75l22.67,22.67c3.24,3.24,8.5,3.24,11.74,0l15.86-15.86c2.68-2.68,6.87-3.24,10.11-1.26,10.27,6.23,21.52,11.01,33.46,14.05,3.67.93,6.22,4.25,6.22,8.03v22.24c0,4.59,3.72,8.3,8.3,8.3h32.06c4.59,0,8.31-3.72,8.31-8.3v-22.24c0-3.78,2.56-7.1,6.22-8.03,3.15-.8,6.26-1.73,9.3-2.77,17.88,15.22,41.02,24.42,66.28,24.42,56.46,0,102.4-45.93,102.4-102.4s-45.93-102.4-102.4-102.4ZM133.48,245c0-48.16,39.04-87.2,87.2-87.2,27.55,0,52.1,12.78,68.08,32.73-37.67,15.14-64.33,52.04-64.33,95.05,0,16.31,3.84,31.74,10.65,45.44-4.68.78-9.49,1.19-14.4,1.19-48.16,0-87.2-39.04-87.2-87.2ZM326.83,370.97c-47.09,0-85.4-38.31-85.4-85.4s38.31-85.4,85.4-85.4,85.4,38.31,85.4,85.4-38.31,85.4-85.4,85.4Z"/>
  <path class="cls-1" d="M369.94,245.01c-3.87-3.12-9.53-2.52-12.66,1.34l-47.28,58.48-13.64-16.87c-3.12-3.86-8.79-4.47-12.66-1.34-3.87,3.12-4.47,8.79-1.34,12.66l20.64,25.53c1.71,2.11,4.28,3.34,7,3.34s5.29-1.23,7-3.34l54.28-67.13c3.12-3.87,2.52-9.53-1.34-12.66Z"/>
</svg>