<?xml version="1.0" encoding="UTF-8"?>
<svg id="Layer_1" data-name="Layer 1" xmlns="http://www.w3.org/2000/svg" viewBox="0 0 490 490">
  <defs>
    <style>
      .cls-1 {
        fill: #084045;
        stroke-width: 0px;
      }
    </style>
  </defs>
  <path class="cls-1" d="M431.97,230.08H58.03c-4.97,0-9,4.03-9,9v93.72c0,4.97,4.03,9,9,9h373.95c4.97,0,9-4.03,9-9v-93.72c0-4.97-4.03-9-9-9ZM422.97,323.79H67.03v-75.72h17.13v47.04c0,4.97,4.03,9,9,9s9-4.03,9-9v-47.04h32.82v34.11c0,4.97,4.03,9,9,9s9-4.03,9-9v-34.11h32.82v47.04c0,4.97,4.03,9,9,9s9-4.03,9-9v-47.04h32.82v34.11c0,4.97,4.03,9,9,9s9-4.03,9-9v-34.11h32.82v47.04c0,4.97,4.03,9,9,9s9-4.03,9-9v-47.04h32.82v34.11c0,4.97,4.03,9,9,9s9-4.03,9-9v-34.11h32.82v47.04c0,4.97,4.03,9,9,9s9-4.03,9-9v-47.04h15.89v75.72Z"/>
  <path class="cls-1" d="M439.08,175.95l-18.89-24.27c-3.05-3.92-8.71-4.63-12.63-1.57-3.92,3.05-4.63,8.71-1.57,12.63l7.89,10.14H77.4l7.96-10.1c3.08-3.9,2.41-9.56-1.5-12.64-3.9-3.08-9.56-2.41-12.64,1.5l-19.01,24.12c-1.24,1.58-1.92,3.52-1.93,5.53v.57s0,.01,0,.02c0,0,0,.01,0,.02v.19c-.01,2,.65,3.94,1.86,5.53l18.78,24.42c1.77,2.31,4.44,3.51,7.14,3.51,1.91,0,3.84-.61,5.48-1.87,3.94-3.03,4.68-8.68,1.65-12.62l-7.83-10.18h336.52l-7.89,10.14c-3.05,3.92-2.35,9.58,1.57,12.63,1.64,1.28,3.59,1.9,5.52,1.9,2.68,0,5.33-1.19,7.11-3.47l18.89-24.27c1.23-1.58,1.9-3.53,1.9-5.53v-.8c0-2-.67-3.95-1.9-5.53Z"/>
</svg>