<?xml version="1.0" encoding="UTF-8"?>
<svg id="Layer_1" data-name="Layer 1" xmlns="http://www.w3.org/2000/svg" viewBox="0 0 490 490">
  <defs>
    <style>
      .cls-1 {
        fill: #084045;
        stroke-width: 0px;
      }
    </style>
  </defs>
  <path class="cls-1" d="M467.65,248.01l-.13-3.9c-.13-4.07-.24-7.28-.25-10.95-.02-4.75-1.96-10.62-11.13-11.67-.85-.1-1.75-.21-2.84-.35-3.43-.43-8.13-1.03-15.38-1.53-2.26-.16-5.96-.52-9.88-.91-20.48-2.01-63.08-6.2-93.04-1.49-32.85,5.16-46.54,9.72-59.78,14.12l-3.5,1.16c-13.29,4.38-24.86,4.32-25.42,4.32h-2.75c-2.98,0-13.6-.35-25.39-4.15-1.17-.38-2.33-.75-3.5-1.13-13.28-4.32-27.01-8.79-59.88-13.73-8.84-1.33-19.56-1.98-31.83-1.94-23.33.08-47.04,2.56-61.2,4.05-3.9.41-7.59.8-9.87.97-7.34.56-12.03,1.19-15.46,1.65l-.19.03c-.92.12-1.76.24-2.55.33-9.18,1.11-11.09,7-11.07,11.75.01,3.69-.07,6.9-.18,10.98l-.1,3.87c-.17,6.79.5,9.71,4.77,13.61,2.65,2.42,4.44,5.9,5.47,10.63.22,1,.53,2.72.89,4.74,1.73,9.56,4.94,27.35,11.29,44.4l.08.23c2.79,7.45,5.92,13.95,9.3,19.33,6.89,10.98,19.19,19.01,36.56,23.88,13.72,3.85,26.96,4.6,32.02,4.75.75.02,1.73.07,2.91.13h.28c3.55.19,8.86.46,15.08.46.23,0,.46,0,.7,0,38.12-.13,61.88-10.45,70.62-30.7,12.22-28.3,19-51.44,20.79-57.86.07-.24.12-.48.18-.8l.27-1.37-.28-1.42s-.08-.43-.12-1.1l-.02-.3-.26-1.31c-.92-3.16-1.32-6.14-1.1-8.22.41-.98,3.88-3.69,11.41-3.72h3.71s.07-.01.1-.01c7.46,0,10.92,2.67,11.33,3.64.25,2.21-.19,5.4-1.2,8.75-.57,1.88-.58,3.87-.03,5.77,1.83,6.41,8.76,29.5,21.17,57.71,14.84,33.75,68.83,30.69,86.64,29.67,1.29-.07,2.35-.14,3.15-.16,5.05-.18,18.28-1.02,31.99-4.96,17.33-4.99,29.58-13.1,36.4-24.13,4.5-7.26,8.51-16.55,11.93-27.59l.16-.52c1.44-4.71,2.81-9.85,4.07-15.26l.09-.39c1.9-8.26,3.16-15.51,4-20.32l.09-.51c.33-1.86.58-3.34.78-4.25,1-4.73,2.77-8.22,5.4-10.66,4.25-3.93,4.9-6.85,4.68-13.65ZM399.8,344.78l-.88.25c-19.07,4.76-29.94,5.69-43.33,5.73-2.78,0-5.61-.02-8.63-.04h-.36c-3-.03-6.08-.06-9.47-.06-.68,0-1.38,0-2.08,0h-.17c-21.69,0-32.95-13.71-33.42-14.3l-.15-.17c-10.97-12.58-14.45-37.93-14.59-39l-.04-.25c-.08-.44-1.92-10.88-1.39-22.57.64-14.09,4.57-23.66,11.07-26.96,20.63-10.48,56.38-11.13,63.34-11.16.61,0,1.35-.01,2.21-.02h.54c1.62-.03,3.59-.06,5.83-.07,9.67-.03,17.97.37,25.41,1.24,18.03,2.1,25.93,6.43,29.39,9.69,4.84,4.57,7.59,15.03,7.74,29.45.14,12.56-1.74,23.65-1.76,23.76l-.06.41c-.01.09-1.16,9.65-5.73,20.22-5.53,12.81-13.65,21.05-23.47,23.83ZM189.22,336.64l-.15.19c-.46.59-11.57,14.37-33.42,14.44-3.98.01-7.55.07-10.98.12h-.75c-3.09.06-5.99.11-8.82.12-12.93.04-23.5-.75-41.43-4.98l-.7-.69h-2.1c-9.86-2.7-18.04-10.88-23.67-23.7-4.48-10.19-5.76-19.39-5.89-20.41l-.04-.25c-.08-.45-1.96-11.25-1.91-23.69.06-14.42,2.74-24.9,7.55-29.5,8.09-7.73,28.45-11.54,60.57-11.27h.5c.88.01,1.63.02,2.23.01,6.95-.03,42.7.38,63.41,10.74,6.52,3.26,10.51,12.81,11.25,26.89.62,11.84-1.17,22.21-1.25,22.65l-.06.38c-.03.26-3.36,26.18-14.35,38.96Z"/>
  <path class="cls-1" d="M294.86,175.23c2.79-4.11,1.73-9.71-2.38-12.5l-2.86-1.94c-27.52-18.72-61.72-18.72-89.24,0l-2.86,1.94c-4.11,2.8-5.18,8.39-2.38,12.5,1.74,2.56,4.57,3.94,7.45,3.94,1.74,0,3.5-.51,5.05-1.56l2.86-1.95c21.6-14.69,47.4-14.69,69,0l2.86,1.94c4.11,2.8,9.71,1.73,12.5-2.38Z"/>
  <path class="cls-1" d="M277.45,185.41l-1.85-1.26c-18.88-12.84-42.33-12.84-61.21,0l-1.85,1.26c-4.11,2.79-5.18,8.39-2.38,12.5,2.79,4.11,8.39,5.18,12.5,2.38l1.85-1.26c12.83-8.72,28.14-8.72,40.97,0l1.85,1.26c1.55,1.05,3.31,1.56,5.05,1.56,2.88,0,5.71-1.38,7.45-3.94,2.79-4.11,1.73-9.71-2.38-12.5Z"/>
  <path class="cls-1" d="M191.17,154.81l3.97-2.7c31.22-21.23,68.5-21.23,99.72,0l3.97,2.7c1.55,1.05,3.31,1.56,5.05,1.56,2.88,0,5.71-1.38,7.45-3.94,2.79-4.11,1.73-9.71-2.38-12.5l-3.97-2.7c-37-25.16-82.96-25.16-119.96,0l-3.97,2.7c-4.11,2.79-5.18,8.39-2.38,12.5,2.79,4.11,8.39,5.18,12.5,2.38Z"/>
</svg>